<svg xmlns="http://www.w3.org/2000/svg" viewBox="0 0 211.83 36.84"><title>our_logomdpi</title><g data-name="Layer 2"><g data-name="Layer 1" fill="#fff"><path d="M3.26 0H22v8.2H8.2v20.45h20.45V0h5a3.24 3.24 0 0 1 3.22 3.26v30.37a3.21 3.21 0 0 1-3.22 3.22H3.26A3.24 3.24 0 0 1 0 33.63V3.26A3.27 3.27 0 0 1 3.26 0z" fill-rule="evenodd"/><path d="M14.89 14.89H22V22h-7.11z"/><path d="M208.86 5.3a3 3 0 1 1-3 3 3 3 0 0 1 3-3zm-.26 2.07a.25.25 0 0 1 0 .14.27.27 0 0 1-.15.06h-.46V9.2a.2.2 0 0 1-.06.15.19.19 0 0 1-.14.06.27.27 0 0 1-.15-.06.2.2 0 0 1-.06-.15V7.58h-.46a.23.23 0 0 1-.14-.06.19.19 0 0 1-.06-.14.2.2 0 0 1 .06-.15.23.23 0 0 1 .14-.06h1.35a.27.27 0 0 1 .15.06.26.26 0 0 1 0 .15zm2.26 1.84a.19.19 0 0 1 0 .14.28.28 0 0 1-.14.06.2.2 0 0 1-.14-.06.28.28 0 0 1-.06-.14V8.06l-.4.87L210 9a.22.22 0 0 1-.11 0h-.11a.16.16 0 0 1-.08-.09l-.42-.87v1.18a.19.19 0 0 1 0 .14.19.19 0 0 1-.28 0 .19.19 0 0 1 0-.14V7.33a.16.16 0 0 1 .19-.19h.14l.08.09.59 1.19.59-1.21a.16.16 0 0 1 .08-.09h.12a.16.16 0 0 1 .19.19zm-99.33 17.51h-10v-6h8.8a.8.8 0 0 0 .8-.8v-3.21a.81.81 0 0 0-.8-.8h-8.8v-5.83h9.43a.81.81 0 0 0 .8-.82V6.11a.8.8 0 0 0-.8-.8H96.39a.82.82 0 0 0-.82.82v24.54a.81.81 0 0 0 .82.8h15.14a.81.81 0 0 0 .8-.8v-3.15a.81.81 0 0 0-.8-.8zM82.64 5.3h-8.43a.82.82 0 0 0-.82.82v24.59a.78.78 0 0 0 .79.77h4.36a.79.79 0 0 0 .79-.79v-8.21h2.83a11.38 11.38 0 0 0 7.59-2.43 8 8 0 0 0 2.81-6.43q0-8.32-9.92-8.32zM81.61 18h-2.28V9.83h2.29c3.17 0 4.73 1.36 4.73 4S84.78 18 81.61 18zM201.94 5.3l-8.07 22.5-7.79-22.5h-3.4l9.49 26.17h3.4l9.68-26.17zm-32.22 14.26h9.45v-2.77h-9.45V8.07h10.22V5.3h-13.28v26.18h13.87v-2.77h-10.81zM136.85 5.3h-3.93a.8.8 0 0 0-.8.8v17.3c-.36-.66-8.55-15.1-10-17.7a.79.79 0 0 0-.7-.4h-5.06a.8.8 0 0 0-.8.8v24.57a.8.8 0 0 0 .8.8h3.94a.8.8 0 0 0 .8-.8V12.85c.22.45 8.89 15.57 10.42 18.24a.78.78 0 0 0 .7.39h4.65a.81.81 0 0 0 .82-.8V6.11a.81.81 0 0 0-.84-.81zm12.63 0h-7.25v26.18h7c4.28 0 7.68-1.21 10.27-3.65a12.88 12.88 0 0 0 3.83-9.77c-.02-8.52-4.64-12.76-13.84-12.76zm7.75 20.7c-1.9 1.84-4.58 2.72-8 2.72h-3.9V8.07h4.08c7.16 0 10.71 3.37 10.71 10.08-.01 3.36-.99 5.98-2.89 7.85zM57.77 4.87a12.49 12.49 0 0 0-9.54 3.79 14.09 14.09 0 0 0-3.6 10.08 13.2 13.2 0 0 0 3.51 9.54 12.18 12.18 0 0 0 9.2 3.7 12.41 12.41 0 0 0 9.38-3.8c2.38-2.52 3.56-5.83 3.56-10 0-4-1.11-7.25-3.46-9.68a11.78 11.78 0 0 0-9.05-3.63zm4.53 19.8a6 6 0 0 1-4.87 2.18 5.83 5.83 0 0 1-4.76-2.29 9.42 9.42 0 0 1-1.86-6.12 9.72 9.72 0 0 1 1.86-6.18 5.88 5.88 0 0 1 4.9-2.33 5.68 5.68 0 0 1 4.78 2.29 10.15 10.15 0 0 1 1.75 6.32 9.67 9.67 0 0 1-1.8 6.14z" fill-rule="evenodd"/></g></g></svg>